<?xml version="1.0" standalone="no"?>
<!DOCTYPE svg PUBLIC "-//W3C//DTD SVG 20010904//EN"
 "http://www.w3.org/TR/2001/REC-SVG-20010904/DTD/svg10.dtd">
<svg version="1.0" xmlns="http://www.w3.org/2000/svg"
 width="265.000000pt" height="265.000000pt" viewBox="0 0 265.000000 265.000000"
 preserveAspectRatio="xMidYMid meet">
<metadata>
Created by potrace 1.11, written by Peter Selinger 2001-2013
</metadata>
<g transform="translate(0.000000,265.000000) scale(0.100000,-0.100000)"
fill="#000000" stroke="none">
<path d="M314 2238 c-39 -18 -55 -66 -41 -120 9 -35 62 -63 137 -73 82 -11 91
-19 44 -43 -67 -34 -166 -111 -236 -183 -141 -145 -211 -294 -209 -449 1 -208
108 -347 306 -399 51 -14 166 -14 225 0 182 42 351 215 419 430 63 201 59 361
-14 541 -6 16 -2 17 41 12 173 -19 247 -86 240 -218 -5 -85 -46 -182 -177
-413 -182 -321 -220 -422 -215 -568 4 -132 52 -212 156 -267 37 -19 60 -23
135 -23 84 0 94 2 155 35 41 22 95 65 147 118 l82 83 10 -39 c32 -118 158
-202 300 -202 273 1 669 413 795 825 47 155 40 272 -21 327 -50 45 -140 56
-202 23 -45 -23 -54 -47 -45 -118 9 -70 7 -121 -8 -187 -5 -25 -12 -56 -14
-69 -8 -39 -72 -190 -115 -268 -84 -154 -206 -301 -281 -336 -84 -40 -145 0
-151 99 -8 125 88 402 210 602 109 180 120 257 43 297 -63 33 -137 11 -192
-56 -42 -52 -54 -75 -154 -296 -101 -222 -150 -312 -238 -433 -95 -130 -174
-203 -237 -220 -73 -20 -112 22 -111 123 0 112 47 229 197 487 115 199 143
256 171 346 46 148 20 296 -68 384 -60 61 -149 111 -223 126 -11 2 -31 6 -45
9 -14 3 -36 8 -50 10 -36 7 -187 7 -246 0 -44 -6 -57 -3 -92 18 -88 56 -200
88 -322 92 -47 2 -95 -1 -106 -7z m397 -385 c33 -67 46 -138 42 -223 -12 -264
-172 -486 -337 -468 -89 10 -145 84 -150 200 -10 191 128 392 348 508 32 16
62 30 66 30 5 0 18 -21 31 -47z"/>
</g>
</svg>
